<mxfile host="Electron" modified="2025-09-07T15:26:45.889Z" agent="Mozilla/5.0 (Windows NT 10.0; Win64; x64) AppleWebKit/537.36 (KHTML, like Gecko) draw.io/23.0.2 Chrome/120.0.6099.109 Electron/28.1.0 Safari/537.36" etag="egVv2vr4tkzFUDoL9NhQ" version="23.0.2" type="device">
  <diagram name="第 1 页" id="zGf2m5LY9qaDIcjHpHoz">
    <mxGraphModel dx="1221" dy="823" grid="0" gridSize="10" guides="1" tooltips="1" connect="1" arrows="1" fold="1" page="0" pageScale="1" pageWidth="827" pageHeight="1169" math="0" shadow="0">
      <root>
        <mxCell id="0" />
        <mxCell id="1" parent="0" />
        <mxCell id="tsnciqNK3ViROpMLxeyM-4" style="edgeStyle=orthogonalEdgeStyle;rounded=1;orthogonalLoop=1;jettySize=auto;html=1;exitX=0.5;exitY=1;exitDx=0;exitDy=0;entryX=0.5;entryY=0;entryDx=0;entryDy=0;strokeWidth=2;fillColor=#dae8fc;strokeColor=#6c8ebf;curved=0;" edge="1" parent="1" source="tsnciqNK3ViROpMLxeyM-1" target="tsnciqNK3ViROpMLxeyM-2">
          <mxGeometry relative="1" as="geometry" />
        </mxCell>
        <mxCell id="tsnciqNK3ViROpMLxeyM-7" value="&lt;b&gt;&lt;font color=&quot;#cc0000&quot;&gt;为支持服务器主动推送消息&lt;/font&gt;&lt;/b&gt;" style="edgeLabel;html=1;align=center;verticalAlign=middle;resizable=0;points=[];fontSize=11;fontFamily=Helvetica;fontColor=default;" vertex="1" connectable="0" parent="tsnciqNK3ViROpMLxeyM-4">
          <mxGeometry x="-0.1854" y="1" relative="1" as="geometry">
            <mxPoint as="offset" />
          </mxGeometry>
        </mxCell>
        <mxCell id="tsnciqNK3ViROpMLxeyM-12" style="edgeStyle=orthogonalEdgeStyle;shape=connector;curved=0;rounded=1;orthogonalLoop=1;jettySize=auto;html=1;exitX=0;exitY=0.25;exitDx=0;exitDy=0;entryX=1;entryY=0.5;entryDx=0;entryDy=0;labelBackgroundColor=default;strokeColor=#6c8ebf;strokeWidth=2;align=center;verticalAlign=middle;fontFamily=Helvetica;fontSize=11;fontColor=default;endArrow=classic;fillColor=#dae8fc;" edge="1" parent="1" source="tsnciqNK3ViROpMLxeyM-1" target="tsnciqNK3ViROpMLxeyM-10">
          <mxGeometry relative="1" as="geometry" />
        </mxCell>
        <mxCell id="tsnciqNK3ViROpMLxeyM-1" value="&lt;b&gt;HTTP1.1&lt;/b&gt;" style="rounded=1;whiteSpace=wrap;html=1;fillColor=#dae8fc;strokeColor=#6c8ebf;" vertex="1" parent="1">
          <mxGeometry x="330" y="220" width="108" height="54" as="geometry" />
        </mxCell>
        <mxCell id="tsnciqNK3ViROpMLxeyM-6" style="edgeStyle=orthogonalEdgeStyle;shape=connector;curved=0;rounded=1;orthogonalLoop=1;jettySize=auto;html=1;exitX=0.5;exitY=1;exitDx=0;exitDy=0;entryX=0.5;entryY=0;entryDx=0;entryDy=0;labelBackgroundColor=default;strokeColor=#82b366;strokeWidth=2;align=center;verticalAlign=middle;fontFamily=Helvetica;fontSize=11;fontColor=default;endArrow=classic;fillColor=#d5e8d4;" edge="1" parent="1" source="tsnciqNK3ViROpMLxeyM-2" target="tsnciqNK3ViROpMLxeyM-3">
          <mxGeometry relative="1" as="geometry" />
        </mxCell>
        <mxCell id="tsnciqNK3ViROpMLxeyM-8" value="&lt;b&gt;&lt;font color=&quot;#cc0000&quot;&gt;支持多路复用提升网络效率&lt;br&gt;前置条件：必须开启TLS/SSL安全协议&lt;/font&gt;&lt;/b&gt;" style="edgeLabel;html=1;align=center;verticalAlign=middle;resizable=0;points=[];fontSize=11;fontFamily=Helvetica;fontColor=default;" vertex="1" connectable="0" parent="tsnciqNK3ViROpMLxeyM-6">
          <mxGeometry x="-0.1792" y="-1" relative="1" as="geometry">
            <mxPoint as="offset" />
          </mxGeometry>
        </mxCell>
        <mxCell id="tsnciqNK3ViROpMLxeyM-2" value="&lt;b&gt;WebSocket&lt;/b&gt;" style="rounded=1;whiteSpace=wrap;html=1;fillColor=#d5e8d4;strokeColor=#82b366;" vertex="1" parent="1">
          <mxGeometry x="330" y="347" width="108" height="54" as="geometry" />
        </mxCell>
        <mxCell id="tsnciqNK3ViROpMLxeyM-13" style="edgeStyle=orthogonalEdgeStyle;shape=connector;curved=0;rounded=1;orthogonalLoop=1;jettySize=auto;html=1;exitX=0;exitY=0.75;exitDx=0;exitDy=0;entryX=1;entryY=0.5;entryDx=0;entryDy=0;labelBackgroundColor=default;strokeColor=#6c8ebf;strokeWidth=2;align=center;verticalAlign=middle;fontFamily=Helvetica;fontSize=11;fontColor=default;endArrow=classic;fillColor=#dae8fc;" edge="1" parent="1" source="tsnciqNK3ViROpMLxeyM-3" target="tsnciqNK3ViROpMLxeyM-10">
          <mxGeometry relative="1" as="geometry" />
        </mxCell>
        <mxCell id="tsnciqNK3ViROpMLxeyM-3" value="&lt;b&gt;HTTP2.0&lt;/b&gt;" style="rounded=1;whiteSpace=wrap;html=1;fillColor=#fff2cc;strokeColor=#d6b656;" vertex="1" parent="1">
          <mxGeometry x="330" y="479" width="108" height="54" as="geometry" />
        </mxCell>
        <mxCell id="tsnciqNK3ViROpMLxeyM-10" value="&lt;b&gt;&lt;font color=&quot;#990099&quot;&gt;应用层Web协议的发展&lt;/font&gt;&lt;/b&gt;" style="text;html=1;strokeColor=none;fillColor=none;align=center;verticalAlign=middle;whiteSpace=wrap;rounded=0;fontSize=11;fontFamily=Helvetica;fontColor=default;" vertex="1" parent="1">
          <mxGeometry x="88" y="362" width="139" height="30" as="geometry" />
        </mxCell>
        <mxCell id="tsnciqNK3ViROpMLxeyM-20" style="edgeStyle=orthogonalEdgeStyle;shape=connector;curved=0;rounded=1;orthogonalLoop=1;jettySize=auto;html=1;exitX=0.5;exitY=1;exitDx=0;exitDy=0;entryX=0.5;entryY=0;entryDx=0;entryDy=0;labelBackgroundColor=default;strokeColor=#6c8ebf;strokeWidth=2;align=center;verticalAlign=middle;fontFamily=Helvetica;fontSize=11;fontColor=default;endArrow=classic;fillColor=#dae8fc;" edge="1" parent="1" source="tsnciqNK3ViROpMLxeyM-14" target="tsnciqNK3ViROpMLxeyM-16">
          <mxGeometry relative="1" as="geometry" />
        </mxCell>
        <mxCell id="tsnciqNK3ViROpMLxeyM-21" style="edgeStyle=orthogonalEdgeStyle;shape=connector;curved=0;rounded=1;orthogonalLoop=1;jettySize=auto;html=1;exitX=0.5;exitY=1;exitDx=0;exitDy=0;entryX=0.5;entryY=0;entryDx=0;entryDy=0;labelBackgroundColor=default;strokeColor=#6c8ebf;strokeWidth=2;align=center;verticalAlign=middle;fontFamily=Helvetica;fontSize=11;fontColor=default;endArrow=classic;fillColor=#dae8fc;" edge="1" parent="1" source="tsnciqNK3ViROpMLxeyM-14" target="tsnciqNK3ViROpMLxeyM-17">
          <mxGeometry relative="1" as="geometry" />
        </mxCell>
        <mxCell id="tsnciqNK3ViROpMLxeyM-22" style="edgeStyle=orthogonalEdgeStyle;shape=connector;curved=0;rounded=1;orthogonalLoop=1;jettySize=auto;html=1;exitX=0.5;exitY=1;exitDx=0;exitDy=0;entryX=0.5;entryY=0;entryDx=0;entryDy=0;labelBackgroundColor=default;strokeColor=#6c8ebf;strokeWidth=2;align=center;verticalAlign=middle;fontFamily=Helvetica;fontSize=11;fontColor=default;endArrow=classic;fillColor=#dae8fc;" edge="1" parent="1" source="tsnciqNK3ViROpMLxeyM-14" target="tsnciqNK3ViROpMLxeyM-18">
          <mxGeometry relative="1" as="geometry" />
        </mxCell>
        <mxCell id="tsnciqNK3ViROpMLxeyM-23" style="edgeStyle=orthogonalEdgeStyle;shape=connector;curved=0;rounded=1;orthogonalLoop=1;jettySize=auto;html=1;exitX=0.5;exitY=1;exitDx=0;exitDy=0;entryX=0.5;entryY=0;entryDx=0;entryDy=0;labelBackgroundColor=default;strokeColor=#6c8ebf;strokeWidth=2;align=center;verticalAlign=middle;fontFamily=Helvetica;fontSize=11;fontColor=default;endArrow=classic;fillColor=#dae8fc;" edge="1" parent="1" source="tsnciqNK3ViROpMLxeyM-14" target="tsnciqNK3ViROpMLxeyM-15">
          <mxGeometry relative="1" as="geometry" />
        </mxCell>
        <mxCell id="tsnciqNK3ViROpMLxeyM-24" style="edgeStyle=orthogonalEdgeStyle;shape=connector;curved=0;rounded=1;orthogonalLoop=1;jettySize=auto;html=1;exitX=0.5;exitY=1;exitDx=0;exitDy=0;entryX=0.5;entryY=0;entryDx=0;entryDy=0;labelBackgroundColor=default;strokeColor=#6c8ebf;strokeWidth=2;align=center;verticalAlign=middle;fontFamily=Helvetica;fontSize=11;fontColor=default;endArrow=classic;fillColor=#dae8fc;" edge="1" parent="1" source="tsnciqNK3ViROpMLxeyM-14" target="tsnciqNK3ViROpMLxeyM-19">
          <mxGeometry relative="1" as="geometry" />
        </mxCell>
        <mxCell id="tsnciqNK3ViROpMLxeyM-14" value="&lt;b&gt;HTTP1.1&lt;/b&gt;" style="rounded=1;whiteSpace=wrap;html=1;fillColor=#0050ef;strokeColor=#001DBC;fontColor=#ffffff;" vertex="1" parent="1">
          <mxGeometry x="907.5" y="212" width="108" height="54" as="geometry" />
        </mxCell>
        <mxCell id="tsnciqNK3ViROpMLxeyM-15" value="&lt;b&gt;Stateless&lt;br&gt;无状态&lt;/b&gt;" style="rounded=1;whiteSpace=wrap;html=1;fillColor=#dae8fc;strokeColor=#6c8ebf;" vertex="1" parent="1">
          <mxGeometry x="566" y="333" width="106" height="52" as="geometry" />
        </mxCell>
        <mxCell id="tsnciqNK3ViROpMLxeyM-16" value="&lt;b&gt;request/response&lt;br&gt;请求/响应&lt;br&gt;&lt;/b&gt;" style="rounded=1;whiteSpace=wrap;html=1;fillColor=#dae8fc;strokeColor=#6c8ebf;" vertex="1" parent="1">
          <mxGeometry x="714" y="333" width="137" height="52" as="geometry" />
        </mxCell>
        <mxCell id="tsnciqNK3ViROpMLxeyM-17" value="&lt;strong style=&quot;box-sizing: border-box; color: rgb(51, 51, 51); font-family: &amp;quot;Open Sans&amp;quot;, &amp;quot;Clear Sans&amp;quot;, &amp;quot;Helvetica Neue&amp;quot;, Helvetica, Arial, &amp;quot;Segoe UI Emoji&amp;quot;, &amp;quot;SF Pro&amp;quot;, sans-serif; orphans: 1; text-align: left;&quot;&gt;extensible semantics&lt;br&gt;&lt;/strong&gt;&lt;b&gt;可扩展语义&lt;br&gt;&lt;/b&gt;" style="rounded=1;whiteSpace=wrap;html=1;fillColor=#dae8fc;strokeColor=#6c8ebf;" vertex="1" parent="1">
          <mxGeometry x="893" y="333" width="137" height="52" as="geometry" />
        </mxCell>
        <mxCell id="tsnciqNK3ViROpMLxeyM-18" value="&lt;strong style=&quot;box-sizing: border-box; color: rgb(51, 51, 51); font-family: &amp;quot;Open Sans&amp;quot;, &amp;quot;Clear Sans&amp;quot;, &amp;quot;Helvetica Neue&amp;quot;, Helvetica, Arial, &amp;quot;Segoe UI Emoji&amp;quot;, &amp;quot;SF Pro&amp;quot;, sans-serif; orphans: 1; text-align: left;&quot;&gt;&lt;font style=&quot;font-size: 12px;&quot;&gt;self-decriptive&lt;br&gt;&lt;/font&gt;&lt;/strong&gt;&lt;b&gt;自描述&lt;br&gt;&lt;/b&gt;" style="rounded=1;whiteSpace=wrap;html=1;fillColor=#dae8fc;strokeColor=#6c8ebf;" vertex="1" parent="1">
          <mxGeometry x="1072" y="330" width="137" height="52" as="geometry" />
        </mxCell>
        <mxCell id="tsnciqNK3ViROpMLxeyM-19" value="&lt;strong style=&quot;box-sizing: border-box; color: rgb(51, 51, 51); font-family: &amp;quot;Open Sans&amp;quot;, &amp;quot;Clear Sans&amp;quot;, &amp;quot;Helvetica Neue&amp;quot;, Helvetica, Arial, &amp;quot;Segoe UI Emoji&amp;quot;, &amp;quot;SF Pro&amp;quot;, sans-serif; orphans: 1; text-align: left;&quot;&gt;&lt;font style=&quot;font-size: 12px;&quot;&gt;hypertext information&lt;br&gt;&lt;/font&gt;&lt;/strong&gt;&lt;b&gt;超文本信息&lt;br&gt;&lt;/b&gt;" style="rounded=1;whiteSpace=wrap;html=1;fillColor=#dae8fc;strokeColor=#6c8ebf;" vertex="1" parent="1">
          <mxGeometry x="1251" y="330" width="137" height="52" as="geometry" />
        </mxCell>
      </root>
    </mxGraphModel>
  </diagram>
</mxfile>
